<?xml version="1.0" ?><svg fill="none" height="24" viewBox="0 0 24 24" width="24" xmlns="http://www.w3.org/2000/svg"><path clip-rule="evenodd" d="M15.3333 3.75892L14.5495 5.892C14.3948 6.31295 14.0561 6.63289 13.64 6.77506L11.5183 7.5L13.64 8.22494C14.0561 8.36712 14.3948 8.68705 14.5495 9.108L15.3333 11.2411L16.1172 9.108L16.8211 9.36668L16.1172 9.108C16.2718 8.68705 16.6106 8.36712 17.0267 8.22494L19.1484 7.5L17.0267 6.77506C16.6106 6.63289 16.2718 6.31295 16.1172 5.892L16.8211 5.63332L16.1172 5.892L15.3333 3.75892ZM13.9355 3.2141C14.4078 1.92863 16.2588 1.92863 16.7312 3.2141L17.519 5.35816L19.7522 6.12118C21.0826 6.57575 21.0826 8.42425 19.7522 8.87882L17.519 9.64184L16.7312 11.7859C16.2588 13.0714 14.4078 13.0714 13.9355 11.7859L13.1476 9.64184L10.9145 8.87882C9.58407 8.42425 9.58407 6.57575 10.9145 6.12118L13.1476 5.35816L13.9355 3.2141ZM7 10.159L6.72453 10.9365C6.59411 11.3045 6.30455 11.5941 5.93648 11.7245L5.15905 12L5.93648 12.2755C6.30455 12.4059 6.59411 12.6954 6.72453 13.0635L7 13.841L7.27547 13.0635C7.40589 12.6954 7.69545 12.4059 8.06352 12.2755L8.84095 12L8.06352 11.7245C7.69545 11.5941 7.40589 11.3045 7.27547 10.9365L7 10.159ZM6.80665 14.3866C6.80668 14.3865 6.80671 14.3865 6.80674 14.3864L6.80665 14.3866ZM5.77948 9.1124C6.18692 7.96253 7.81308 7.96253 8.22052 9.1124L8.65668 10.3433L9.8876 10.7795C11.0375 11.1869 11.0375 12.8131 9.8876 13.2205L8.65668 13.6567L8.22052 14.8876C7.81308 16.0375 6.18692 16.0375 5.77948 14.8876L5.34332 13.6567L4.1124 13.2205C2.96253 12.8131 2.96253 11.1869 4.1124 10.7795L5.34332 10.3433L5.77948 9.1124ZM8.68934 10.4355L8.68922 10.4352L8.68934 10.4355ZM13.3333 17.1003L13.1641 17.561C13.0347 17.9129 12.7523 18.1785 12.4078 18.2962L12.0205 18.4286L12.4078 18.5609C12.7523 18.6786 13.0347 18.9443 13.1641 19.2962L13.3333 19.7568L13.5026 19.2962C13.6319 18.9443 13.9143 18.6786 14.2588 18.5609L14.6462 18.4286L14.2588 18.2962C13.9143 18.1785 13.6319 17.9129 13.5026 17.561L13.3333 17.1003ZM12.1728 15.9095C12.566 14.8397 14.1007 14.8397 14.4938 15.9095L14.8644 16.918L15.9199 17.2786C17.0267 17.6568 17.0267 19.2003 15.9199 19.5785L14.8644 19.9392L14.4938 20.9476C14.1007 22.0175 12.566 22.0175 12.1728 20.9476L11.8023 19.9392L10.7467 19.5785C9.63998 19.2003 9.63997 17.6568 10.7467 17.2786L11.8023 16.918L12.1728 15.9095Z" fill="black" fill-rule="evenodd"/></svg>