<?xml version="1.0" ?><svg id="Outline" viewBox="64 64 384 384" xmlns="http://www.w3.org/2000/svg"><defs><style>.cls-1{fill:#ffffff;}</style></defs><path class="cls-1" d="M402.77,111.07,373.6,74.84a36.19,36.19,0,0,0-28.49-13.56l-208.74,1a36.42,36.42,0,0,0-36.18,36.35V415.39a36.39,36.39,0,0,0,36.36,36.35h237.9a36.39,36.39,0,0,0,36.36-36.35V133.87A36.51,36.51,0,0,0,402.77,111.07ZM388.13,415.39a13.7,13.7,0,0,1-13.68,13.68H136.55a13.7,13.7,0,0,1-13.68-13.68V98.63A13.72,13.72,0,0,1,136.48,85l208.74-1h.07a13.59,13.59,0,0,1,10.65,5.11l29.17,36.23a13.72,13.72,0,0,1,3,8.58Z"/><path class="cls-1" d="M335.44,167.66H171.61a11.34,11.34,0,1,0,0,22.67H335.44a11.34,11.34,0,1,0,0-22.67Z"/><path class="cls-1" d="M335.44,245.14H171.61a11.34,11.34,0,1,0,0,22.68H335.44a11.34,11.34,0,0,0,0-22.68Z"/><path class="cls-1" d="M335.44,322.63H171.61a11.34,11.34,0,1,0,0,22.68H335.44a11.34,11.34,0,0,0,0-22.68Z"/></svg>