<?xml version="1.0" ?><svg viewBox="0 0 24 24" xmlns="http://www.w3.org/2000/svg"><g id="Line"><path d="M22.13,17.62a7.83,7.83,0,0,0,.74-5,8,8,0,0,0-6.36-6.44A5.24,5.24,0,0,0,16,6.08a8.45,8.45,0,0,0-1.31-1.74A8,8,0,0,0,1.13,8.57a7.91,7.91,0,0,0,.74,5l-.39,1.45a2,2,0,0,0,2.45,2.45l1.45-.39a7.94,7.94,0,0,0,2.67.81A8,8,0,0,0,15,22a7.83,7.83,0,0,0,3.6-.87l1.45.38A2,2,0,0,0,22,21a2,2,0,0,0,.52-1.93ZM5.51,15.06a1.09,1.09,0,0,0-.26,0l-1.84.5.5-1.84a1.06,1.06,0,0,0-.1-.76A5.9,5.9,0,0,1,3.1,8.92a6,6,0,1,1,7,7A5.9,5.9,0,0,1,6,15.19,1.13,1.13,0,0,0,5.51,15.06ZM20.19,17a1,1,0,0,0-.1.76l.5,1.83-1.84-.49a1,1,0,0,0-.76.11,6,6,0,0,1-7.57-1.33h0a8,8,0,0,0,6.43-6.36,8.34,8.34,0,0,0-.05-3.23,6.05,6.05,0,0,1,4.09,4.65A5.87,5.87,0,0,1,20.19,17Z"/></g></svg>