<?xml version="1.0" encoding="iso-8859-1"?>
<!-- Generator: Adobe Illustrator 16.0.0, SVG Export Plug-In . SVG Version: 6.00 Build 0)  -->
<!DOCTYPE svg PUBLIC "-//W3C//DTD SVG 1.1//EN" "http://www.w3.org/Graphics/SVG/1.1/DTD/svg11.dtd">
<svg version="1.1" id="Capa_1" xmlns="http://www.w3.org/2000/svg" xmlns:xlink="http://www.w3.org/1999/xlink" x="0px" y="0px"
	 width="612px" height="612px" viewBox="0 0 612 612" style="enable-background:new 0 0 612 612;" xml:space="preserve">
<g>
	<g>
		<g>
			<path d="M265.593,478.725c0,36.621-14.864,69.815-38.893,93.864l-0.02,0.021l-0.02,0.02l-0.02,0.021
				c-24.049,24.009-57.223,38.893-93.824,38.893s-69.815-14.864-93.864-38.893l-0.02-0.021l-0.02-0.02h-0.02
				C14.864,548.54,0,515.346,0,478.725c0-36.602,14.864-69.814,38.893-93.863l0.02-0.021l0.02-0.02l0.02-0.021
				c24.049-24.027,57.243-38.892,93.844-38.892c36.602,0,69.795,14.863,93.844,38.912l0.02,0.02l0.02,0.021v0.02
				C250.729,408.929,265.593,442.123,265.593,478.725L265.593,478.725z M213.212,559.1c20.542-20.542,33.254-48.953,33.254-80.375
				c0-31.4-12.712-59.834-33.254-80.376l-0.04-0.04c-20.522-20.542-48.955-33.254-80.355-33.254
				c-31.421,0-59.833,12.712-80.375,33.254l-0.04,0.04c-20.542,20.522-33.254,48.955-33.254,80.376
				c0,31.422,12.712,59.833,33.254,80.375l0.04,0.04c20.542,20.542,48.954,33.255,80.375,33.255
				c31.401,0,59.833-12.692,80.355-33.255L213.212,559.1z"/>
			<path d="M95.558,277.826c0,5.26-4.264,9.524-9.524,9.524c-5.26,0-9.524-4.264-9.524-9.524l-0.02-117.674h-0.04
				c0-8.587,1.773-16.856,4.901-24.447c3.268-7.87,8.03-14.943,13.887-20.801l0.558-0.518c5.798-5.639,12.672-10.241,20.263-13.389
				l0.538-0.219c7.452-3.008,15.521-4.662,23.889-4.662v0.04l136.802-0.04c5.26,0,9.523,4.264,9.523,9.524
				c0,5.26-4.264,9.524-9.523,9.524l-136.802,0.04v0.04c-5.958,0-11.656,1.156-16.776,3.228l-0.339,0.16
				c-5.3,2.211-10.122,5.419-14.186,9.364l-0.418,0.438c-4.164,4.184-7.551,9.146-9.803,14.604
				c-2.172,5.24-3.387,11.039-3.387,17.115h-0.06L95.558,277.826z"/>
			<path d="M75.434,478.725c0,5.279-4.284,9.563-9.564,9.563c-5.28,0-9.563-4.284-9.563-9.563c0-21.119,8.567-40.248,22.415-54.096
				l0.638-0.577c13.788-13.509,32.676-21.838,53.477-21.838c5.28,0,9.564,4.284,9.564,9.564c0,5.278-4.284,9.562-9.564,9.562
				c-15.621,0-29.787,6.196-40.068,16.259l-0.499,0.537C81.85,448.539,75.434,462.884,75.434,478.725z"/>
			<path d="M612,133.254c0,36.601-14.863,69.815-38.893,93.864l-0.021,0.02l-0.021,0.02l-0.021,0.02
				c-24.049,24.029-57.224,38.893-93.845,38.893c-36.602,0-69.815-14.864-93.864-38.913l-0.02-0.02l-0.021-0.02l-0.021-0.02
				c-24.028-24.049-38.894-57.243-38.894-93.844c0-36.602,14.864-69.815,38.894-93.864l0.021-0.02l0.021-0.02l0.02-0.02
				c24.091-24.009,57.266-38.873,93.887-38.873c36.602,0,69.795,14.864,93.845,38.893l0.021,0.02l0.021,0.02l0.02,0.02
				C597.156,63.458,612,96.652,612,133.254L612,133.254z M559.618,213.629c20.543-20.542,33.254-48.975,33.254-80.375
				c0-31.421-12.711-59.833-33.254-80.375l-0.039-0.04c-20.522-20.542-48.955-33.254-80.355-33.254
				c-31.421,0-59.834,12.711-80.376,33.254l-0.039,0.04c-20.543,20.542-33.255,48.955-33.255,80.375
				c0,31.401,12.712,59.833,33.255,80.375l0.039,0.04c20.542,20.542,48.955,33.254,80.376,33.254
				c31.4,0,59.833-12.712,80.355-33.254L559.618,213.629z"/>
			<path d="M421.841,133.254c0,5.28-4.284,9.563-9.562,9.563c-5.28,0-9.563-4.284-9.563-9.563v-0.02
				c0-21.08,8.587-40.208,22.415-54.035l0.039-0.04c13.828-13.828,32.955-22.396,54.035-22.396h0.021
				c5.279,0,9.563,4.284,9.563,9.564c0,5.28-4.284,9.563-9.563,9.563h-0.021c-15.819,0-30.165,6.396-40.546,16.757l-0.04,0.04
				c-10.341,10.381-16.756,24.727-16.756,40.566l0,0L421.841,133.254L421.841,133.254z"/>
			<path d="M232.279,74.178c-3.726-3.726-3.726-9.803,0-13.529c3.726-3.726,9.803-3.726,13.529,0l38.235,38.235
				c3.726,3.726,3.726,9.803,0,13.529l-0.518,0.498l-37.697,37.737c-3.706,3.726-9.763,3.746-13.489,0.04
				c-3.726-3.706-3.746-9.763-0.04-13.489l31.5-31.521L232.279,74.178z"/>
			<path d="M41.024,246.345c-3.726-3.726-3.726-9.803,0-13.529s9.803-3.726,13.529,0l31.5,31.5l31.521-31.5
				c3.726-3.706,9.783-3.686,13.489,0.04s3.686,9.783-0.04,13.489l-37.717,37.697l-0.498,0.538c-3.726,3.726-9.803,3.726-13.529,0
				L41.024,246.345z"/>
			<path d="M516.482,334.172c0-5.26,4.264-9.522,9.522-9.522s9.524,4.264,9.524,9.522l0.02,117.654h0.04
				c0,8.588-1.772,16.876-4.901,24.447c-3.247,7.83-8.029,14.884-13.888,20.78l-0.04,0.04l-0.277,0.279l-0.021,0.02
				c-5.838,5.719-12.812,10.4-20.482,13.608c-7.57,3.148-15.818,4.882-24.406,4.882v-0.04l-136.821,0.04
				c-5.26,0-9.523-4.265-9.523-9.523c0-5.26,4.265-9.523,9.523-9.523l136.821-0.04v-0.04c6.097,0,11.875-1.216,17.096-3.387
				c5.499-2.271,10.479-5.639,14.624-9.764l0.04-0.04c4.124-4.145,7.472-9.125,9.763-14.604c2.152-5.22,3.389-11.018,3.389-17.115
				h0.038L516.482,334.172z"/>
			<path d="M379.761,537.84c3.706,3.728,3.687,9.783-0.04,13.489s-9.783,3.686-13.488-0.04l-38.256-38.255
				c-3.686-3.727-3.686-9.743,0-13.449l38.256-38.273c3.705-3.728,9.763-3.746,13.488-0.04c3.727,3.706,3.746,9.763,0.04,13.487
				L348.24,506.3L379.761,537.84z"/>
			<path d="M571.016,365.633c3.727,3.727,3.727,9.803,0,13.529c-3.727,3.726-9.803,3.726-13.528,0l-31.5-31.501l-31.541,31.501
				c-3.727,3.705-9.782,3.686-13.488-0.04c-3.706-3.728-3.688-9.783,0.04-13.489l37.736-37.697l0.498-0.537
				c3.726-3.727,9.803-3.727,13.528,0L571.016,365.633z"/>
		</g>
	</g>
</g>
<g>
</g>
<g>
</g>
<g>
</g>
<g>
</g>
<g>
</g>
<g>
</g>
<g>
</g>
<g>
</g>
<g>
</g>
<g>
</g>
<g>
</g>
<g>
</g>
<g>
</g>
<g>
</g>
<g>
</g>
</svg>
