<?xml version="1.0" ?><svg viewBox="0 0 24 24" xmlns="http://www.w3.org/2000/svg"><g id="Line"><path d="M21.42,3.69v0a6.49,6.49,0,0,0-5-2.67h0A7,7,0,0,0,12,2.84,7,7,0,0,0,7.57,1h0a6.49,6.49,0,0,0-5,2.69c-2.28,2.84-2,7.77.55,11.73a25.73,25.73,0,0,0,7.24,7.1,3,3,0,0,0,3.26,0,25.59,25.59,0,0,0,7.24-7.1C23.47,11.46,23.7,6.53,21.42,3.69ZM19.2,14.32a23.4,23.4,0,0,1-6.67,6.52,1,1,0,0,1-1.07,0A23.66,23.66,0,0,1,4.8,14.32C2.7,11.12,2.41,7.09,4.12,5A4.65,4.65,0,0,1,7.54,3h0a5.65,5.65,0,0,1,3.67,1.88,1,1,0,0,0,1.52,0A5.68,5.68,0,0,1,16.44,3h0a4.61,4.61,0,0,1,3.43,2C21.59,7.1,21.3,11.12,19.2,14.32Z"/><path d="M18,11H16.87l-1-1.72a1,1,0,0,0-.86-.5h0a1,1,0,0,0-.87.5l-1.82,3.17L11,7.73a1,1,0,0,0-1.87-.14L7.55,11H6a1,1,0,0,0,0,2H8.2a1,1,0,0,0,.91-.59l.68-1.51L11,15.27a1,1,0,0,0,.84.72H12a1,1,0,0,0,.87-.5L15,11.78l.42.72a1,1,0,0,0,.86.5H18a1,1,0,0,0,0-2Z"/></g></svg>