<?xml version="1.0"?><svg xmlns="http://www.w3.org/2000/svg" viewBox="0 0 24 24"><title/><g id="Performance_Mode" data-name="Performance Mode"><path d="M20,14a1,1,0,0,1-.6-.2L12,8.25,4.6,13.8a1,1,0,0,1-1,.09A1,1,0,0,1,3,13V8a1,1,0,0,1,.4-.8l8-6a1,1,0,0,1,1.2,0l8,6A1,1,0,0,1,21,8v5a1,1,0,0,1-.55.89A.91.91,0,0,1,20,14ZM12,6a1,1,0,0,1,.6.2L19,11V8.5L12,3.25,5,8.5V11l6.4-4.8A1,1,0,0,1,12,6Zm8,17a1,1,0,0,1-.6-.2L12,17.25,4.6,22.8a1,1,0,0,1-1,.09A1,1,0,0,1,3,22V17a1,1,0,0,1,.4-.8l8-6a1,1,0,0,1,1.2,0l8,6a1,1,0,0,1,.4.8v5a1,1,0,0,1-.55.89A.91.91,0,0,1,20,23Zm-8-8a1,1,0,0,1,.6.2L19,20V17.5l-7-5.25L5,17.5V20l6.4-4.8A1,1,0,0,1,12,15Z"/></g></svg>